# xmcd
#
# Track frame offsets:
#	150
#	11483
#	31068
#	65147
#	78287
#	99939
#	120542
#	132962
#	147267
#	167018
#	181758
#	196047
#	207855
#	221495
#	242046
#	259626
#	280138
#	290687
#
# Disc length: 4218 seconds
#
# Revision: 1
# Processed by: cddbd v1.5.1PL0 Copyright (c) Steve Scherf et al.
# Submitted via: audiograbber 1.83.01
#
DISCID=f9107812
DTITLE=Various Artist - Red, white and Blues CD2
DYEAR=1900
DGENRE=Blues
TTITLE0=Hooker, John Lee - Boom Boom
TTITLE1=Winter, Johnny - Shame shame shame
TTITLE2=Ten Years After - Love like a man
TTITLE3=Rogers, Jimmy - Bad luck blues
TTITLE4=Korner, Alexis - Stormy monday blues
TTITLE5=Canned heat - On the road again
TTITLE6=9 Below Zero - Talk to me baby
TTITLE7=Memphis Slim - Boogie woogie Memphis
TTITLE8=King, Freddie - Five long years
TTITLE9=Dr. Feelgood - Down at the doctor´s
TTITLE10=Mann, Manfred - Got my mojo working
TTITLE11=T-Bone Walker - Evil hearted woman
TTITLE12=James, Elmore - Dust my broom
TTITLE13=Snowy White - Birthday Blues
TTITLE14=Diddley, Bo - Before you accuse me
TTITLE15=Taylor Koko - Blues Power
TTITLE16=Magic Slim, Billie Branch and James Cotton - When the leve breaks
TTITLE17=Johnson, Syl - Me and Bobby McGee
EXTD=
EXTT0=
EXTT1=
EXTT2=
EXTT3=
EXTT4=
EXTT5=
EXTT6=
EXTT7=
EXTT8=
EXTT9=
EXTT10=
EXTT11=
EXTT12=
EXTT13=
EXTT14=
EXTT15=
EXTT16=
EXTT17=
PLAYORDER=
